#!OML:ASF I:\golf\golf\golf 2\Subject 1\2002-09-07\Subject1.ASF
:FULLY-SPECIFIED
:DEGREES
477
root 1.01953 17.5738 -2.7493 18.1811 -0.754633 -1.57573
lowerback 14.2745 4.43512 -4.56738
upperback 7.41274 5.35037 4.94226
thorax -1.00532 2.48362 6.97554
lowerneck -20.4383 -2.62449 -1.80416
upperneck 28.81 -2.11154 -2.99568
head 13.0548 -1.50836 -1.20879
rclavicle 1.11319e-014 2.54444e-014
rhumerus -6.24377 9.33295 -78.0048
rradius 35.0576
rwrist -12.7338
rhand -26.9139 6.45361
rfingers 7.12502
rthumb -0.336917 -23.5259
lclavicle 1.11319e-014 2.54444e-014
lhumerus -27.9281 -38.4327 103.097
lradius 58.9578
lwrist 3.41411
lhand -22.9586 29.5543
lfingers 7.12502
lthumb 3.4831 59.5056
rfemur -32.6285 -13.4009 20.3444
rtibia 46.5039
rfoot -21.9209 2.62598
rtoes -16.4527
lfemur -45.6127 3.11502 -15.013
ltibia 34.5267
lfoot -4.4221 -8.23109
ltoes -16.1332
478
root 0.969616 17.5969 -2.76517 17.8237 -0.651357 -1.51474
lowerback 13.9756 4.37155 -4.70473
upperback 7.16753 5.26876 4.96351
thorax -1.10683 2.45178 7.09917
lowerneck -20.5211 -2.61909 -2.01243
upperneck 28.9108 -2.12146 -2.70293
head 13.1211 -1.49683 -1.06532
rclavicle -3.97569e-015 0
rhumerus -7.08673 9.42904 -78.0796
rradius 35.1553
rwrist -12.9068
rhand -26.6281 6.34646
rfingers 7.12502
rthumb -0.0608639 -23.6333
lclavicle -3.97569e-015 0
lhumerus -28.0263 -38.3293 103.319
lradius 58.2164
lwrist 3.94528
lhand -22.7013 29.4946
lfingers 7.12502
lthumb 3.73152 59.4417
rfemur -31.6271 -13.4229 20.5335
rtibia 45.3109
rfoot -22.0454 2.07765
rtoes -15.1998
lfemur -44.8172 3.04028 -14.852
ltibia 33.5934
lfoot -4.01399 -8.32933
ltoes -15.3529
479
root 0.92164 17.6217 -2.78254 17.3967 -0.559101 -1.48751
lowerback 13.7605 4.31879 -4.72155
upperback 6.93748 5.21071 4.93864
thorax -1.22648 2.43449 7.09527
lowerneck -20.3949 -2.62937 -1.98709
upperneck 28.7492 -2.19243 -2.58427
head 13.0279 -1.50845 -1.03016
rclavicle -2.8625e-014 1.43125e-014
rhumerus -7.92227 9.42441 -78.1951
rradius 35.2536
rwrist -13.0636
rhand -26.2218 5.99301
rfingers 7.12502
rthumb 0.331501 -23.9865
lclavicle -2.8625e-014 1.43125e-014
lhumerus -28.1918 -38.1543 103.488
lradius 57.6691
lwrist 4.63181
lhand -22.315 29.7092
lfingers 7.12502
lthumb 4.10458 59.6494
rfemur -30.5696 -13.4694 20.765
rtibia 44.0856
rfoot -22.146 1.30246
rtoes -14.9007
lfemur -43.9523 2.83852 -14.5951
ltibia 32.7154
lfoot -3.59976 -8.25133
ltoes -14.8912
480
root 0.876182 17.65 -2.79536 16.9495 -0.56102 -1.59077
lowerback 13.4624 4.2976 -4.57355
upperback 6.77695 5.2134 4.89985
thorax -1.22357 2.44465 6.97883
lowerneck -20.3325 -2.65189 -1.82859
upperneck 28.5248 -2.2894 -2.58091
head 12.9184 -1.5329 -1.06655
rclavicle 5.32743e-014 -3.18055e-015
rhumerus -8.70941 9.46348 -78.3432
rradius 35.3337
rwrist -13.296
rhand -26.1496 5.84994
rfingers 7.12502
rthumb 0.401285 -24.1294
lclavicle 5.32743e-014 -3.18055e-015
lhumerus -28.4053 -38.0243 103.58
lradius 57.3156
lwrist 5.42158
lhand -21.5436 30.4224
lfingers 7.12502
lthumb 4.84943 60.3469
rfemur -29.4812 -13.4836 21.1184
rtibia 42.8452
rfoot -22.0854 0.77918
rtoes -13.2221
lfemur -42.9938 2.62706 -14.1715
ltibia 31.8818
lfoot -3.26697 -8.0204
ltoes -15.5043
481
root 0.832145 17.6789 -2.80684 16.5401 -0.585321 -1.71518
lowerback 13.0888 4.26157 -4.42256
upperback 6.65286 5.19881 4.90237
thorax -1.14168 2.44248 6.91433
lowerneck -20.3367 -2.61441 -1.67236
upperneck 28.2359 -2.27368 -2.65553
head 12.797 -1.51963 -1.11356
rclavicle -7.4743e-014 -2.70347e-014
rhumerus -9.40554 9.64313 -78.4271
rradius 35.3514
rwrist -13.4248
rhand -26.2114 5.90737
rfingers 7.12502
rthumb 0.341531 -24.0721
lclavicle -7.4743e-014 -2.70347e-014
lhumerus -28.5391 -37.8474 103.657
lradius 56.9716
lwrist 6.44788
lhand -20.8517 30.8868
lfingers 7.12502
lthumb 5.51753 60.795
rfemur -28.4354 -13.4597 21.4864
rtibia 41.6166
rfoot -21.9674 0.393813
rtoes -11.2142
lfemur -42.0511 2.43482 -13.7386
ltibia 31.0842
lfoot -3.01523 -7.78482
ltoes -16.6772
482
root 0.784703 17.7032 -2.8248 16.2652 -0.65017 -1.75846
lowerback 12.6623 4.21972 -4.44149
upperback 6.4766 5.16043 4.92561
thorax -1.09695 2.42786 6.97453
lowerneck -20.3417 -2.56036 -1.6863
upperneck 27.9823 -2.21402 -2.60422
head 12.6964 -1.48849 -1.07686
rclavicle 2.62396e-014 9.54166e-015
rhumerus -10.0299 9.8222 -78.4547
rradius 35.3201
rwrist -13.4232
rhand -26.0464 6.0161
rfingers 7.12502
rthumb 0.500957 -23.9631
lclavicle 2.62396e-014 9.54166e-015
lhumerus -28.5845 -37.4388 103.752
lradius 56.5681
lwrist 7.68879
lhand -20.9558 30.7047
lfingers 7.12502
lthumb 5.41704 60.6155
rfemur -27.6073 -13.3223 21.7908
rtibia 40.4322
rfoot -21.73 -0.224332
rtoes -10.6114
lfemur -41.2928 2.2695 -13.4007
ltibia 30.2834
lfoot -2.72511 -7.54204
ltoes -17.2789
483
root 0.734417 17.726 -2.8453 16.0688 -0.846027 -1.77868
lowerback 12.1972 4.22606 -4.5344
upperback 6.25765 5.17837 4.90382
thorax -1.08624 2.44266 7.02027
lowerneck -20.4111 -2.54887 -1.76705
upperneck 27.8805 -2.22368 -2.43689
head 12.6729 -1.47943 -1.00022
rclavicle -2.46493e-014 1.59028e-015
rhumerus -10.7008 9.91671 -78.546
rradius 35.3969
rwrist -13.5266
rhand -25.8471 6.03253
rfingers 7.12502
rthumb 0.69342 -23.9461
lclavicle -2.46493e-014 1.59028e-015
lhumerus -28.7133 -37.0204 103.844
lradius 56.203
lwrist 8.95851
lhand -20.847 30.8155
lfingers 7.12502
lthumb 5.52209 60.7235
rfemur -26.9102 -13.0441 22.0312
rtibia 39.306
rfoot -21.4338 -0.774528
rtoes -9.88699
lfemur -40.6072 2.24593 -13.1215
ltibia 29.4511
lfoot -2.42265 -7.32307
ltoes -17.0157
484
root 0.681538 17.7496 -2.87174 15.8909 -0.977467 -2.00609
lowerback 11.7196 4.22634 -4.38998
upperback 6.07005 5.2131 4.91784
thorax -1.02202 2.46691 6.96833
lowerneck -20.5519 -2.53299 -1.68146
upperneck 27.7611 -2.23482 -2.42407
head 12.6517 -1.47437 -1.01204
rclavicle -2.38542e-015 2.06736e-014
rhumerus -11.2905 10.0214 -78.6626
rradius 35.4134
rwrist -13.5722
rhand -25.8367 5.99847
rfingers 7.12502
rthumb 0.703499 -23.9801
lclavicle -2.38542e-015 2.06736e-014
lhumerus -28.7847 -36.7618 103.878
lradius 55.8076
lwrist 10.2017
lhand -20.1865 31.1093
lfingers 7.12502
lthumb 6.15974 60.9997
rfemur -26.2507 -12.63 22.4778
rtibia 38.2489
rfoot -21.3067 -1.15609
rtoes -8.54932
lfemur -39.9599 2.30286 -12.6142
ltibia 28.577
lfoot -2.05083 -7.2002
ltoes -17.0924
485
root 0.626104 17.771 -2.90876 15.7024 -0.95627 -2.4187
lowerback 11.3922 4.19242 -4.02655
upperback 5.8638 5.22054 5.00713
thorax -1.04269 2.48292 6.8662
lowerneck -20.6983 -2.51156 -1.60962
upperneck 27.6113 -2.22896 -2.42604
head 12.6198 -1.4653 -1.02389
rclavicle -4.13472e-014 -6.36111e-015
rhumerus -11.7233 10.1424 -78.7405
rradius 35.2294
rwrist -13.5766
rhand -25.8675 6.60936
rfingers 7.12502
rthumb 0.67372 -23.3693
lclavicle -4.13472e-014 -6.36111e-015
lhumerus -28.9079 -36.4484 103.91
lradius 55.49
lwrist 11.2926
lhand -19.4233 30.8848
lfingers 7.12502
lthumb 6.89655 60.7525
rfemur -25.6255 -12.0738 23.1201
rtibia 37.2634
rfoot -21.1303 -1.55037
rtoes -7.46897
lfemur -39.3499 2.30129 -11.8653
ltibia 27.6429
lfoot -1.57183 -7.12984
ltoes -17.8585
486
root 0.574299 17.7928 -2.94107 15.418 -1.13772 -2.49483
lowerback 11.1516 4.20518 -4.01487
upperback 5.66325 5.24942 4.98587
thorax -1.12483 2.50611 6.83898
lowerneck -20.7627 -2.50566 -1.65791
upperneck 27.4042 -2.2572 -2.26443
head 12.5521 -1.46138 -0.956275
rclavicle 3.57812e-014 1.59028e-015
rhumerus -12.1635 10.1237 -78.8463
rradius 35.0394
rwrist -13.5365
rhand -25.6063 7.22894
rfingers 7.12502
rthumb 0.92601 -22.7488
lclavicle 3.57812e-014 1.59028e-015
lhumerus -29.1585 -35.89 103.948
lradius 55.2871
lwrist 12.2493
lhand -18.4203 30.7452
lfingers 7.12502
lthumb 7.86469 60.579
rfemur -24.9069 -11.4698 23.25
rtibia 36.3484
rfoot -20.8192 -1.76944
rtoes -7.53034
lfemur -38.5323 2.21701 -11.4851
ltibia 26.6627
lfoot -1.11825 -6.87202
ltoes -18.0994
487
root 0.526301 17.8204 -2.96548 15.0583 -1.55979 -2.16639
lowerback 10.8043 4.24442 -4.48219
upperback 5.56359 5.26726 4.86808
thorax -1.07076 2.5113 6.99547
lowerneck -20.8348 -2.42929 -1.70748
upperneck 27.0845 -2.18191 -2.11479
head 12.4418 -1.41363 -0.874427
rclavicle -9.54166e-015 -2.38542e-014
rhumerus -12.5108 10.177 -78.916
rradius 34.8444
rwrist -13.4156
rhand -25.0315 6.76312
rfingers 7.12502
rthumb 1.48114 -23.2115
lclavicle -9.54166e-015 -2.38542e-014
lhumerus -29.2869 -35.1634 103.954
lradius 55.0882
lwrist 13.4073
lhand -17.6198 30.9543
lfingers 7.12502
lthumb 8.63725 60.7576
rfemur -24.1078 -10.8959 22.8098
rtibia 35.4981
rfoot -20.6623 -1.49871
rtoes -6.74611
lfemur -37.5427 2.0135 -11.5246
ltibia 25.7068
lfoot -0.665097 -6.35024
ltoes -17.2243
